#N canvas 401 23 679 320 12;
#X obj -85 55 unpackOSC;
#X obj -85 82 pipelist;
#X obj -85 27 udpreceive 5432;
#X obj -85 110 routeOSC /0 /1 /2 /3 /4;
#X obj -85 172 unpack 0 0 0;
#X floatatom -85 204 5 0 0 0 X - -;
#X floatatom -45 240 5 0 0 0 Y - -;
#X floatatom -4 266 5 0 0 0 Z - -;
#X text -79 149 finger 0;
#X obj 34 172 unpack 0 0 0;
#X floatatom 34 204 5 0 0 0 X - -;
#X floatatom 74 240 5 0 0 0 Y - -;
#X floatatom 115 266 5 0 0 0 Z - -;
#X text 40 149 finger 1;
#X obj 157 172 unpack 0 0 0;
#X floatatom 157 204 5 0 0 0 X - -;
#X floatatom 197 240 5 0 0 0 Y - -;
#X floatatom 238 266 5 0 0 0 Z - -;
#X obj 276 172 unpack 0 0 0;
#X floatatom 276 204 5 0 0 0 X - -;
#X floatatom 316 240 5 0 0 0 Y - -;
#X floatatom 357 266 5 0 0 0 Z - -;
#X text 163 149 finger 2;
#X text 282 149 finger 3;
#X obj 406 172 unpack 0 0 0;
#X floatatom 406 204 5 0 0 0 X - -;
#X floatatom 446 240 5 0 0 0 Y - -;
#X floatatom 487 266 5 0 0 0 Z - -;
#X text 412 149 finger 4;
#X text 128 20 Pd Patch for extraction of 5 fingers from fingerPosition.pde
Sketch.;
#X connect 0 0 1 0;
#X connect 0 1 1 1;
#X connect 1 0 3 0;
#X connect 2 0 0 0;
#X connect 3 0 4 0;
#X connect 3 1 9 0;
#X connect 3 2 14 0;
#X connect 3 3 18 0;
#X connect 3 4 24 0;
#X connect 4 0 5 0;
#X connect 4 1 6 0;
#X connect 4 2 7 0;
#X connect 9 0 10 0;
#X connect 9 1 11 0;
#X connect 9 2 12 0;
#X connect 14 0 15 0;
#X connect 14 1 16 0;
#X connect 14 2 17 0;
#X connect 18 0 19 0;
#X connect 18 1 20 0;
#X connect 18 2 21 0;
#X connect 24 0 25 0;
#X connect 24 1 26 0;
#X connect 24 2 27 0;
