#N canvas 626 23 733 668 12;
#X obj -85 272 unpack 0 0 0;
#X floatatom -85 304 5 0 0 0 X - -;
#X floatatom -45 340 5 0 0 0 Y - -;
#X floatatom -4 366 5 0 0 0 Z - -;
#X text -79 249 finger 0;
#X obj 34 272 unpack 0 0 0;
#X floatatom 34 304 5 0 0 0 X - -;
#X floatatom 74 340 5 0 0 0 Y - -;
#X floatatom 115 366 5 0 0 0 Z - -;
#X text 40 249 finger 1;
#X obj 157 272 unpack 0 0 0;
#X floatatom 157 304 5 0 0 0 X - -;
#X floatatom 197 340 5 0 0 0 Y - -;
#X floatatom 238 366 5 0 0 0 Z - -;
#X obj 276 272 unpack 0 0 0;
#X floatatom 276 304 5 0 0 0 X - -;
#X floatatom 316 340 5 0 0 0 Y - -;
#X floatatom 357 366 5 0 0 0 Z - -;
#X text 163 249 finger 2;
#X text 282 249 finger 3;
#X obj 406 272 unpack 0 0 0;
#X floatatom 406 304 5 0 0 0 X - -;
#X floatatom 446 340 5 0 0 0 Y - -;
#X floatatom 487 366 5 0 0 0 Z - -;
#X text 412 249 finger 4;
#X obj -85 95 /Applications/Pd-extended.app/Contents/Resources/extra/osc/unpackOSC
;
#X obj -85 152 /Applications/Pd-extended.app/Contents/Resources/extra/osc/pipelist
;
#X obj -85 210 /Applications/Pd-extended.app/Contents/Resources/extra/osc/routeOSC
/0 /1 /2 /3 /4;
#X obj -86 27 /Applications/Pd-extended.app/Contents/Resources/extra/net/udpreceive
5432;
#X msg -86 -2 port 5432;
#X obj -86 -26 loadbang;
#X obj -67 419 outlet;
#X obj 66 418 outlet;
#X obj 170 422 outlet;
#X obj 303 421 outlet;
#X obj 403 418 outlet;
#X connect 0 0 1 0;
#X connect 0 1 2 0;
#X connect 0 2 3 0;
#X connect 5 0 6 0;
#X connect 5 1 7 0;
#X connect 5 2 8 0;
#X connect 10 0 11 0;
#X connect 10 1 12 0;
#X connect 10 2 13 0;
#X connect 14 0 15 0;
#X connect 14 1 16 0;
#X connect 14 2 17 0;
#X connect 20 0 21 0;
#X connect 20 1 22 0;
#X connect 20 2 23 0;
#X connect 25 0 26 0;
#X connect 25 1 26 1;
#X connect 26 0 27 0;
#X connect 27 0 0 0;
#X connect 27 0 31 0;
#X connect 27 1 5 0;
#X connect 27 1 32 0;
#X connect 27 2 10 0;
#X connect 27 2 33 0;
#X connect 27 3 14 0;
#X connect 27 3 34 0;
#X connect 27 4 20 0;
#X connect 27 4 35 0;
#X connect 28 0 25 0;
#X connect 29 0 28 0;
#X connect 30 0 29 0;
