#N canvas 581 75 247 145 10;
#N canvas 319 222 626 350 gemwin 0;
#X obj 41 244 gemwin;
#X msg 200 47 reset \, dimen 640 480 \, create \, 1;
#X obj 183 96 tgl 15 0 empty empty empty 17 7 0 10 -262144 -1 -1 0
1;
#X msg 183 115 color \$1 \$1 \$1;
#X text 206 76 basic create and start rendering;
#X text 206 95 change background color;
#X text 184 215 destroy window;
#X text 114 196 (stop rendering and);
#X text 199 27 and start rendering;
#N canvas 957 427 450 300 patch-init 0;
#X obj 45 18 loadbang;
#X obj 45 46 t b b;
#X msg 72 86 0 \, destroy;
#X msg 45 117 create \, 1;
#X obj 49 179 outlet;
#X connect 0 0 1 0;
#X connect 1 0 3 0;
#X connect 1 1 2 0;
#X connect 2 0 4 0;
#X connect 3 0 4 0;
#X restore -44 121 pd patch-init;
#N canvas 676 327 450 300 screen-mode 0;
#N canvas 107 24 450 300 esc 0;
#X obj 65 20 gemkeyboard;
#X obj 65 167 outlet;
#X obj 89 71 keyname;
#X obj 128 96 sel Escape;
#X obj 65 41 sel 53;
#X obj 189 47 sel Escape;
#X obj 150 22 gemkeyname;
#X connect 0 0 4 0;
#X connect 2 1 3 0;
#X connect 3 0 1 0;
#X connect 4 0 1 0;
#X connect 5 0 1 0;
#X connect 6 1 5 0;
#X restore 182 108 pd esc;
#X msg 182 130 0 \, destroy \, fullscreen 0 \, create \, 1;
#X msg 181 67 0 \, destroy \, fullscreen 1 \, create \, 1;
#X text 188 48 Fullscreen;
#X obj 179 31 inlet;
#X obj 158 192 outlet;
#X connect 0 0 1 0;
#X connect 1 0 5 0;
#X connect 2 0 5 0;
#X connect 4 0 2 0;
#X restore -110 93 pd screen-mode;
#X obj -102 66 inlet;
#N canvas 606 436 252 232 video-core 0;
#X obj 38 61 gemhead;
#X obj 32 169 s gemhead;
#X obj 39 132 spigot;
#X obj 74 96 r audience-presence;
#X connect 0 0 2 0;
#X connect 2 0 1 0;
#X connect 3 0 2 1;
#X restore -109 181 pd video-core;
#X connect 1 0 0 0;
#X connect 2 0 3 0;
#X connect 3 0 0 0;
#X connect 9 0 0 0;
#X connect 10 0 0 0;
#X connect 11 0 10 0;
#X restore -77 -368 pd gemwin;
#X obj -77 -389 bng 15 250 50 0 empty empty fullscreen 17 7 0 10 -262144
-1 -1;
#N canvas 134 23 1210 492 leap-receive 0;
#X obj 131 -81 fingerPosition;
#X obj 128 -31 unpack 0 0 0;
#X floatatom 128 21 5 0 0 0 X - -;
#X floatatom 196 56 5 0 0 0 Y - -;
#X floatatom 270 129 5 0 0 0 Z - -;
#X text 134 -54 finger 0;
#X obj 296 -13 unpack 0 0 0;
#X floatatom 296 19 5 0 0 0 X - -;
#X floatatom 336 55 5 0 0 0 Y - -;
#X floatatom 377 81 5 0 0 0 Z - -;
#X text 302 -36 finger 1;
#X obj 543 -19 unpack 0 0 0;
#X floatatom 543 13 5 0 0 0 X - -;
#X floatatom 583 49 5 0 0 0 Y - -;
#X floatatom 624 75 5 0 0 0 Z - -;
#X obj 755 -29 unpack 0 0 0;
#X floatatom 755 3 5 0 0 0 X - -;
#X floatatom 795 39 5 0 0 0 Y - -;
#X floatatom 836 65 5 0 0 0 Z - -;
#X text 549 -42 finger 2;
#X text 761 -52 finger 3;
#X obj 962 -43 unpack 0 0 0;
#X floatatom 962 -11 5 0 0 0 X - -;
#X floatatom 1002 25 5 0 0 0 Y - -;
#X floatatom 1051 49 5 0 0 0 Z - -;
#X text 968 -66 finger 4;
#X floatatom 111 106 5 0 0 0 - - -;
#X obj 110 180 send X0;
#X obj 173 241 send Y0;
#X obj 273 296 send Z0;
#X floatatom 184 150 5 0 0 0 - - -;
#X floatatom 274 222 5 0 0 0 - - -;
#X obj 59 -3 t f f f;
#X obj 114 69 / 100;
#X obj 187 113 / 100;
#X obj 277 185 / 100;
#X obj 270 260 max 1;
#X obj 175 187 max 1;
#X obj 108 137 max 1;
#X obj 24 -52 r reset-position;
#X connect 0 0 1 0;
#X connect 0 1 6 0;
#X connect 0 2 11 0;
#X connect 0 3 15 0;
#X connect 0 4 21 0;
#X connect 1 0 2 0;
#X connect 1 1 3 0;
#X connect 1 2 4 0;
#X connect 2 0 33 0;
#X connect 3 0 34 0;
#X connect 4 0 35 0;
#X connect 6 0 7 0;
#X connect 6 1 8 0;
#X connect 6 2 9 0;
#X connect 11 0 12 0;
#X connect 11 1 13 0;
#X connect 11 2 14 0;
#X connect 15 0 16 0;
#X connect 15 1 17 0;
#X connect 15 2 18 0;
#X connect 21 0 22 0;
#X connect 21 1 23 0;
#X connect 21 2 24 0;
#X connect 26 0 38 0;
#X connect 30 0 37 0;
#X connect 31 0 36 0;
#X connect 32 0 2 0;
#X connect 32 1 3 0;
#X connect 32 2 4 0;
#X connect 33 0 26 0;
#X connect 34 0 30 0;
#X connect 35 0 31 0;
#X connect 36 0 29 0;
#X connect 37 0 28 0;
#X connect 38 0 27 0;
#X connect 39 0 32 0;
#X restore 14 -366 pd leap-receive;
#N canvas 819 563 450 300 presence-switch 0;
#X obj -6 -26 bng 15 250 50 0 empty empty approccio 17 7 0 10 -262144
-1 -1;
#X obj 84 -26 bng 15 250 50 0 empty empty allontanamento 17 7 0 10
-262144 -1 -1;
#X msg -7 33 1;
#X msg 81 42 0;
#X obj 59 3 t b b;
#X obj -4 -4 t b b;
#X obj -7 94 s audience-presence;
#X obj 155 97 s reset-position;
#X msg 159 52 100;
#X obj -12 -94 route presence;
#X obj 4 -69 sel 1 0;
#X obj -14 -118 r presence;
#X connect 0 0 5 0;
#X connect 1 0 4 0;
#X connect 2 0 6 0;
#X connect 3 0 6 0;
#X connect 4 0 8 0;
#X connect 4 1 3 0;
#X connect 5 0 2 0;
#X connect 5 1 8 0;
#X connect 8 0 7 0;
#X connect 9 0 10 0;
#X connect 10 0 0 0;
#X connect 10 1 1 0;
#X connect 11 0 9 0;
#X restore 14 -343 pd presence-switch;
#N canvas 772 245 450 300 fingerS 1;
#N canvas 479 65 961 643 finger0 1;
#X obj -326 254 pix_texture;
#X obj -420 425 model;
#X obj -115 104 scaleXYZ 1 1.1 1;
#X obj 8 360 translateXYZ 0 0 0.1;
#X floatatom -40 59 5 0 0 0 - - -;
#X floatatom 0 60 5 0 0 0 - - -;
#X obj 24 237 rotateXYZ 1 5 9;
#X floatatom 56 211 5 0 0 0 - - -;
#X floatatom 98 215 5 0 0 0 - - -;
#X floatatom 137 218 5 0 0 0 - - -;
#X floatatom 49 315 5 0 0 0 - - -;
#X floatatom 89 315 5 0 0 0 - - -;
#X floatatom 132 311 5 0 0 0 - - -;
#X floatatom -80 58 5 0 0 0 - - -;
#X obj -324 216 pix_image;
#X obj -129 21 receive X0;
#X obj -62 20 receive Y0;
#X obj 7 19 receive Z0;
#X obj -590 65 loadbang;
#X obj -590 87 t b b;
#X obj -529 64 bng 15 250 50 0 empty empty empty 17 7 0 10 -262144
-1 -1;
#X obj -167 -18 r gemhead;
#X msg -554 333 open models/bom1.obj;
#X msg -353 163 open /texture/wood-texture.jpg;
#X connect 0 0 1 0;
#X connect 2 0 14 0;
#X connect 4 0 2 2;
#X connect 5 0 2 3;
#X connect 7 0 6 1;
#X connect 8 0 6 2;
#X connect 9 0 6 3;
#X connect 10 0 3 1;
#X connect 11 0 3 2;
#X connect 12 0 3 3;
#X connect 13 0 2 1;
#X connect 14 0 0 0;
#X connect 15 0 13 0;
#X connect 15 0 7 0;
#X connect 15 0 10 0;
#X connect 16 0 4 0;
#X connect 16 0 8 0;
#X connect 16 0 11 0;
#X connect 17 0 5 0;
#X connect 17 0 9 0;
#X connect 17 0 12 0;
#X connect 18 0 19 0;
#X connect 19 0 23 0;
#X connect 19 1 22 0;
#X connect 20 0 19 0;
#X connect 21 0 2 0;
#X connect 22 0 1 0;
#X connect 23 0 14 0;
#X restore 19 -352 pd finger0;
#X restore 14 -390 pd fingerS;
#N canvas 837 22 476 222 presence 0;
#X msg 27 -295 presence 1;
#X msg 36 -272 presence 0;
#X obj 27 -248 s presence;
#X connect 0 0 2 0;
#X connect 1 0 2 0;
#X restore -77 -343 pd presence;
#X connect 1 0 0 0;
